<?xml version="1.0" encoding="UTF-8"?><svg xmlns="http://www.w3.org/2000/svg" xmlns:xlink="http://www.w3.org/1999/xlink" contentScriptType="text/ecmascript" fill="#000000" width="296.8" zoomAndPan="magnify" contentStyleType="text/css" viewBox="64.2 45.1 296.8 338.8" height="338.8" preserveAspectRatio="xMidYMid meet" version="1"><g><g><path fill="#a7a5a6" d="M 174.640625 199.800781 C 174.398438 199.800781 174.15625 199.769531 173.910156 199.707031 C 172.375 199.304688 171.457031 197.734375 171.859375 196.199219 L 203.792969 74.207031 C 204.195312 72.671875 205.765625 71.753906 207.300781 72.152344 C 208.835938 72.554688 209.757812 74.128906 209.355469 75.660156 L 177.417969 197.65625 C 177.082031 198.945312 175.914062 199.800781 174.640625 199.800781"/></g><g><path fill="#a7a5a6" d="M 244.257812 199.800781 C 244.496094 199.800781 244.742188 199.769531 244.984375 199.707031 C 246.519531 199.304688 247.441406 197.734375 247.039062 196.199219 L 215.101562 74.207031 C 214.699219 72.671875 213.132812 71.753906 211.59375 72.152344 C 210.058594 72.554688 209.140625 74.128906 209.542969 75.660156 L 241.476562 197.65625 C 241.816406 198.945312 242.980469 199.800781 244.257812 199.800781"/></g><g><path fill="#a7a5a6" d="M 189.972656 89.15625 C 188.023438 89.15625 185.945312 88.878906 183.746094 88.242188 C 182.222656 87.800781 181.34375 86.207031 181.78125 84.683594 C 182.222656 83.15625 183.820312 82.277344 185.34375 82.71875 C 197.34375 86.1875 203.167969 75.632812 203.410156 75.179688 C 204.160156 73.78125 205.902344 73.257812 207.300781 74.007812 C 208.699219 74.757812 209.226562 76.496094 208.472656 77.898438 C 206.136719 82.257812 199.652344 89.15625 189.972656 89.15625"/></g><g><path fill="#a7a5a6" d="M 227.976562 89.15625 C 229.925781 89.15625 232.003906 88.878906 234.203125 88.242188 C 235.730469 87.800781 236.605469 86.207031 236.167969 84.683594 C 235.726562 83.15625 234.128906 82.277344 232.609375 82.71875 C 220.609375 86.1875 214.78125 75.632812 214.542969 75.179688 C 213.789062 73.78125 212.050781 73.257812 210.648438 74.007812 C 209.25 74.757812 208.726562 76.496094 209.476562 77.898438 C 211.816406 82.257812 218.296875 89.15625 227.976562 89.15625"/></g><g><path fill="#f03d3a" d="M 228.296875 274.605469 L 210.589844 205.949219 C 209.550781 201.925781 211.972656 197.820312 215.996094 196.78125 L 277.1875 181.003906 C 281.210938 179.964844 285.316406 182.386719 286.355469 186.410156 L 304.0625 255.066406 C 321.113281 264.574219 335.019531 282.269531 340.785156 304.640625 C 350.917969 343.929688 325.578125 357.371094 292.257812 365.964844 C 258.9375 374.554688 230.257812 375.046875 220.125 335.757812 C 214.355469 313.390625 217.96875 291.175781 228.296875 274.605469"/></g><g><path fill="#c1302d" d="M 337.46875 319.605469 C 340.085938 323.273438 345.828125 323.667969 350.296875 320.480469 L 355.042969 317.09375 C 359.507812 313.910156 361.007812 308.351562 358.390625 304.683594 L 318.597656 248.894531 C 315.980469 245.222656 310.28125 245.191406 304.660156 246.539062 L 300.054688 248.113281 C 280.175781 262.292969 291.371094 272.679688 293.992188 276.347656 L 313.554688 290.097656 L 337.46875 319.605469"/></g><g><path fill="#c1302d" d="M 236.914062 359.214844 C 241.089844 375.402344 267.113281 382.6875 295.042969 375.484375 C 322.972656 368.28125 342.226562 349.320312 338.050781 333.132812 C 333.875 316.941406 307.851562 309.65625 279.925781 316.859375 C 251.996094 324.0625 232.742188 343.023438 236.914062 359.214844"/></g><g><path fill="#c1302d" d="M 214.535156 311.621094 C 213.921875 329.992188 226.246094 361.78125 236.5625 363.507812 C 243.109375 363.726562 237.628906 330.785156 238.246094 312.414062 C 238.859375 294.042969 234.050781 278.976562 227.503906 278.753906 C 220.957031 278.535156 215.152344 293.25 214.535156 311.621094"/></g><g><path fill="#761c18" d="M 254.136719 186.945312 L 271.175781 253.023438 C 272.214844 257.050781 269.792969 261.152344 265.769531 262.191406 L 265.257812 262.324219 C 261.234375 263.359375 257.128906 260.941406 256.089844 256.914062 L 239.050781 190.835938 L 254.136719 186.945312"/></g><g><path fill="#d3d2d2" d="M 237.261719 193.8125 C 237.207031 195.351562 238.410156 196.644531 239.949219 196.695312 L 255.605469 197.242188 C 257.144531 197.296875 258.4375 196.09375 258.488281 194.554688 C 258.542969 193.015625 257.339844 191.726562 255.800781 191.671875 L 240.144531 191.125 C 238.605469 191.070312 237.3125 192.273438 237.261719 193.8125"/></g><g><path fill="#d3d2d2" d="M 240.175781 205.125 C 240.125 206.664062 241.328125 207.953125 242.867188 208.011719 L 258.523438 208.558594 C 260.0625 208.609375 261.355469 207.40625 261.40625 205.867188 C 261.460938 204.328125 260.257812 203.035156 258.71875 202.984375 L 243.0625 202.4375 C 241.523438 202.382812 240.230469 203.585938 240.175781 205.125"/></g><g><path fill="#d3d2d2" d="M 243.09375 216.4375 C 243.039062 217.976562 244.246094 219.269531 245.785156 219.320312 L 261.441406 219.871094 C 262.980469 219.925781 264.273438 218.71875 264.324219 217.183594 C 264.378906 215.644531 263.175781 214.351562 261.636719 214.296875 L 245.980469 213.75 C 244.441406 213.695312 243.148438 214.898438 243.09375 216.4375"/></g><g><path fill="#d3d2d2" d="M 246.011719 227.753906 C 245.960938 229.289062 247.164062 230.582031 248.703125 230.636719 L 264.359375 231.183594 C 265.898438 231.238281 267.1875 230.035156 267.242188 228.496094 C 267.296875 226.957031 266.09375 225.664062 264.554688 225.609375 L 248.898438 225.0625 C 247.359375 225.011719 246.066406 226.214844 246.011719 227.753906"/></g><g><path fill="#d3d2d2" d="M 248.929688 239.066406 C 248.878906 240.605469 250.082031 241.894531 251.621094 241.949219 L 267.277344 242.496094 C 268.816406 242.550781 270.105469 241.347656 270.160156 239.808594 C 270.214844 238.269531 269.011719 236.976562 267.472656 236.925781 L 251.8125 236.378906 C 250.277344 236.324219 248.984375 237.527344 248.929688 239.066406"/></g><g><path fill="#d3d2d2" d="M 251.847656 250.378906 C 251.796875 251.917969 253 253.210938 254.535156 253.261719 L 270.195312 253.8125 C 271.734375 253.863281 273.023438 252.660156 273.078125 251.121094 C 273.132812 249.582031 271.929688 248.292969 270.390625 248.238281 L 254.730469 247.691406 C 253.191406 247.636719 251.902344 248.839844 251.847656 250.378906"/></g><g><path fill="#aeacac" d="M 252.003906 264.035156 C 253.054688 265.164062 254.816406 265.222656 255.941406 264.175781 L 270.601562 248.773438 C 271.726562 247.726562 271.789062 245.960938 270.738281 244.835938 C 269.6875 243.710938 267.925781 243.648438 266.796875 244.695312 L 252.140625 260.09375 C 251.011719 261.144531 250.953125 262.910156 252.003906 264.035156"/></g><g><path fill="#aeacac" d="M 237.414062 207.46875 C 238.464844 208.59375 240.230469 208.65625 241.355469 207.605469 L 256.011719 192.207031 C 257.140625 191.15625 257.199219 189.394531 256.148438 188.269531 C 255.101562 187.140625 253.335938 187.078125 252.210938 188.128906 L 237.550781 203.527344 C 236.425781 204.578125 236.363281 206.34375 237.414062 207.46875"/></g><g><path fill="#aeacac" d="M 240.332031 218.78125 C 241.382812 219.90625 243.144531 219.96875 244.273438 218.921875 L 258.929688 203.519531 C 260.054688 202.472656 260.117188 200.707031 259.066406 199.582031 C 258.019531 198.453125 256.253906 198.394531 255.128906 199.441406 L 240.46875 214.839844 C 239.34375 215.890625 239.28125 217.65625 240.332031 218.78125"/></g><g><path fill="#aeacac" d="M 243.25 230.097656 C 244.300781 231.222656 246.0625 231.285156 247.1875 230.234375 L 261.847656 214.835938 C 262.976562 213.785156 263.035156 212.019531 261.984375 210.894531 C 260.933594 209.769531 259.171875 209.707031 258.046875 210.757812 L 243.386719 226.15625 C 242.261719 227.203125 242.199219 228.96875 243.25 230.097656"/></g><g><path fill="#aeacac" d="M 246.167969 241.40625 C 247.21875 242.535156 248.980469 242.597656 250.109375 241.546875 L 264.765625 226.148438 C 265.890625 225.097656 265.953125 223.332031 264.902344 222.207031 C 263.851562 221.082031 262.089844 221.019531 260.960938 222.070312 L 246.304688 237.46875 C 245.179688 238.519531 245.117188 240.28125 246.167969 241.40625"/></g><g><path fill="#aeacac" d="M 249.085938 252.722656 C 250.136719 253.847656 251.898438 253.910156 253.023438 252.859375 L 267.683594 237.460938 C 268.808594 236.410156 268.871094 234.648438 267.820312 233.519531 C 266.769531 232.394531 265.007812 232.332031 263.882812 233.382812 L 249.222656 248.78125 C 248.097656 249.832031 248.035156 251.597656 249.085938 252.722656"/></g><g><path fill="#a7a5a6" d="M 289.589844 376.714844 C 291.398438 376.363281 293.21875 375.957031 295.042969 375.484375 C 293.214844 375.957031 291.398438 376.363281 289.589844 376.714844 M 295.105469 375.46875 C 295.109375 375.46875 295.117188 375.464844 295.121094 375.464844 C 295.117188 375.464844 295.109375 375.46875 295.105469 375.46875 M 295.175781 375.449219 C 295.183594 375.449219 295.191406 375.445312 295.199219 375.445312 C 295.191406 375.445312 295.183594 375.449219 295.175781 375.449219 M 295.242188 375.433594 C 295.257812 375.429688 295.269531 375.425781 295.28125 375.421875 C 295.269531 375.425781 295.257812 375.429688 295.242188 375.433594 M 295.300781 375.417969 C 295.324219 375.410156 295.34375 375.40625 295.363281 375.402344 C 295.34375 375.40625 295.320312 375.410156 295.300781 375.417969 M 295.375 375.398438 C 301.425781 373.8125 307.066406 371.675781 312.140625 369.136719 C 307.066406 371.675781 301.425781 373.8125 295.375 375.398438 M 312.144531 369.136719 C 312.164062 369.125 312.183594 369.113281 312.203125 369.105469 C 312.183594 369.113281 312.164062 369.125 312.144531 369.136719 M 312.214844 369.101562 C 312.222656 369.097656 312.234375 369.089844 312.242188 369.085938 C 312.234375 369.089844 312.222656 369.097656 312.214844 369.101562 M 312.28125 369.066406 C 312.285156 369.0625 312.296875 369.058594 312.304688 369.054688 C 312.296875 369.058594 312.289062 369.0625 312.28125 369.066406 M 312.339844 369.039062 C 312.34375 369.035156 312.351562 369.03125 312.359375 369.027344 C 312.351562 369.03125 312.34375 369.035156 312.339844 369.039062 M 312.402344 369.007812 C 312.40625 369.003906 312.410156 369.003906 312.414062 369 C 312.410156 369.003906 312.402344 369.003906 312.402344 369.007812 M 312.464844 368.976562 C 312.464844 368.972656 312.46875 368.972656 312.472656 368.96875 C 312.472656 368.972656 312.464844 368.972656 312.464844 368.976562 M 350.03125 320.664062 C 350.121094 320.605469 350.207031 320.542969 350.296875 320.480469 L 355.042969 317.09375 C 358.019531 314.972656 359.675781 311.800781 359.679688 308.832031 C 359.675781 311.800781 358.019531 314.972656 355.042969 317.09375 L 350.296875 320.480469 C 350.207031 320.542969 350.121094 320.605469 350.03125 320.664062 M 214.535156 311.621094 C 214.535156 311.605469 214.539062 311.585938 214.539062 311.570312 C 214.539062 311.589844 214.535156 311.605469 214.535156 311.621094 M 214.539062 311.53125 C 214.539062 311.527344 214.539062 311.523438 214.539062 311.523438 C 214.539062 311.523438 214.539062 311.527344 214.539062 311.53125 M 214.539062 311.484375 C 214.539062 311.480469 214.542969 311.476562 214.542969 311.472656 C 214.542969 311.476562 214.539062 311.480469 214.539062 311.484375 M 214.542969 311.429688 C 214.542969 311.425781 214.542969 311.425781 214.542969 311.421875 C 214.542969 311.425781 214.542969 311.425781 214.542969 311.429688 M 214.546875 311.378906 C 214.546875 311.378906 214.546875 311.375 214.546875 311.375 C 214.546875 311.375 214.546875 311.378906 214.546875 311.378906 M 228.210938 274.742188 C 228.210938 274.738281 228.210938 274.738281 228.210938 274.738281 C 228.210938 274.738281 228.210938 274.738281 228.210938 274.742188 M 228.246094 274.683594 C 228.25 274.675781 228.253906 274.671875 228.257812 274.664062 C 228.253906 274.671875 228.25 274.675781 228.246094 274.683594 M 302.089844 247.417969 L 286.355469 186.410156 L 302.089844 247.417969 M 286.355469 186.410156 C 286.351562 186.394531 286.347656 186.375 286.339844 186.355469 C 286.347656 186.375 286.351562 186.394531 286.355469 186.410156 M 286.324219 186.300781 C 286.320312 186.285156 286.320312 186.273438 286.316406 186.261719 C 286.320312 186.273438 286.320312 186.285156 286.324219 186.300781 M 277.1875 181.003906 C 277.191406 181 277.199219 181 277.207031 180.996094 C 277.199219 181 277.191406 181 277.1875 181.003906 M 277.253906 180.984375 C 277.863281 180.835938 278.472656 180.761719 279.070312 180.761719 C 278.472656 180.761719 277.863281 180.835938 277.253906 180.984375 M 279.074219 180.761719 C 279.074219 180.761719 279.074219 180.761719 279.070312 180.761719 C 279.074219 180.761719 279.074219 180.761719 279.074219 180.761719"/></g><g><path fill="#9d2723" d="M 240.070312 365.707031 C 238.898438 365.046875 237.757812 364.320312 236.65625 363.507812 C 237.265625 363.5 237.769531 363.195312 238.179688 362.632812 C 238.707031 363.707031 239.339844 364.730469 240.070312 365.707031 M 239.554688 343.414062 C 239.042969 333.210938 237.953125 321.160156 238.246094 312.414062 C 238.859375 294.042969 234.050781 278.976562 227.503906 278.753906 C 227.457031 278.753906 227.410156 278.753906 227.359375 278.753906 C 226.820312 278.753906 226.289062 278.855469 225.761719 279.050781 C 226.53125 277.574219 227.347656 276.136719 228.210938 274.742188 C 228.210938 274.738281 228.210938 274.738281 228.210938 274.738281 C 228.222656 274.722656 228.234375 274.703125 228.246094 274.683594 C 228.25 274.675781 228.253906 274.671875 228.257812 274.664062 C 228.269531 274.644531 228.28125 274.625 228.296875 274.605469 L 210.589844 205.949219 C 210.425781 205.320312 210.347656 204.691406 210.347656 204.070312 C 210.347656 200.71875 212.601562 197.65625 215.996094 196.78125 L 251.3125 187.675781 L 239.050781 190.835938 L 239.160156 191.265625 C 238.089844 191.625 237.300781 192.617188 237.261719 193.8125 C 237.207031 195.351562 238.410156 196.644531 239.949219 196.695312 L 240.566406 196.71875 L 241.304688 199.585938 L 237.550781 203.527344 C 236.425781 204.578125 236.363281 206.34375 237.414062 207.46875 C 237.964844 208.058594 238.707031 208.355469 239.453125 208.355469 C 240.136719 208.355469 240.816406 208.109375 241.355469 207.605469 L 241.414062 207.542969 C 241.832031 207.820312 242.328125 207.992188 242.867188 208.011719 L 243.484375 208.03125 L 244.222656 210.898438 L 240.46875 214.839844 C 239.34375 215.890625 239.28125 217.65625 240.332031 218.78125 C 240.882812 219.371094 241.625 219.667969 242.371094 219.667969 C 243.054688 219.667969 243.734375 219.421875 244.273438 218.921875 L 244.332031 218.855469 C 244.75 219.132812 245.246094 219.304688 245.785156 219.320312 L 246.402344 219.34375 L 247.140625 222.210938 L 243.386719 226.15625 C 242.261719 227.203125 242.199219 228.96875 243.25 230.097656 C 243.796875 230.683594 244.542969 230.984375 245.289062 230.984375 C 245.96875 230.984375 246.652344 230.734375 247.1875 230.234375 L 247.25 230.167969 C 247.667969 230.449219 248.164062 230.617188 248.703125 230.636719 L 249.320312 230.660156 L 250.058594 233.523438 L 246.304688 237.46875 C 245.179688 238.519531 245.117188 240.28125 246.167969 241.40625 C 246.714844 241.996094 247.460938 242.296875 248.207031 242.296875 C 248.890625 242.296875 249.570312 242.046875 250.109375 241.546875 L 250.167969 241.484375 C 250.585938 241.761719 251.082031 241.929688 251.621094 241.949219 L 252.238281 241.972656 L 252.976562 244.839844 L 249.222656 248.78125 C 248.097656 249.832031 248.035156 251.597656 249.085938 252.722656 C 249.632812 253.3125 250.378906 253.609375 251.125 253.609375 C 251.804688 253.609375 252.488281 253.359375 253.023438 252.859375 L 253.085938 252.796875 C 253.503906 253.074219 254 253.242188 254.535156 253.261719 L 255.15625 253.285156 L 255.894531 256.152344 L 252.140625 260.09375 C 251.011719 261.144531 250.953125 262.910156 252.003906 264.035156 C 252.550781 264.625 253.296875 264.921875 254.042969 264.921875 C 254.722656 264.921875 255.40625 264.675781 255.941406 264.175781 L 258.890625 261.078125 C 260.167969 262.023438 261.734375 262.5625 263.375 262.5625 C 263.996094 262.5625 264.628906 262.484375 265.257812 262.324219 L 265.769531 262.191406 C 269.59375 261.207031 271.96875 257.449219 271.304688 253.621094 C 272.3125 253.230469 273.039062 252.269531 273.078125 251.121094 C 273.125 249.789062 272.230469 248.644531 270.992188 248.324219 C 271.722656 247.269531 271.648438 245.8125 270.738281 244.835938 C 270.222656 244.28125 269.535156 243.984375 268.835938 243.949219 L 268.410156 242.300781 C 269.402344 241.902344 270.121094 240.945312 270.160156 239.808594 C 270.207031 238.476562 269.3125 237.332031 268.074219 237.011719 C 268.804688 235.957031 268.734375 234.5 267.820312 233.519531 C 267.304688 232.96875 266.617188 232.671875 265.917969 232.636719 L 265.492188 230.988281 C 266.484375 230.589844 267.203125 229.632812 267.242188 228.496094 C 267.289062 227.164062 266.394531 226.019531 265.15625 225.699219 C 265.890625 224.644531 265.8125 223.183594 264.902344 222.207031 C 264.386719 221.65625 263.699219 221.359375 263 221.324219 L 262.574219 219.675781 C 263.570312 219.273438 264.285156 218.320312 264.324219 217.183594 C 264.371094 215.851562 263.476562 214.703125 262.238281 214.386719 C 262.972656 213.328125 262.898438 211.871094 261.984375 210.894531 C 261.46875 210.34375 260.78125 210.046875 260.082031 210.011719 L 259.65625 208.359375 C 260.652344 207.960938 261.367188 207.007812 261.40625 205.867188 C 261.453125 204.535156 260.558594 203.390625 259.320312 203.070312 C 260.054688 202.015625 259.980469 200.558594 259.066406 199.582031 C 258.550781 199.027344 257.863281 198.730469 257.164062 198.695312 L 256.738281 197.046875 C 257.734375 196.648438 258.449219 195.695312 258.488281 194.554688 C 258.535156 193.222656 257.640625 192.078125 256.402344 191.757812 C 257.136719 190.703125 257.0625 189.246094 256.148438 188.269531 C 255.636719 187.714844 254.945312 187.417969 254.246094 187.382812 L 254.136719 186.945312 L 277.1875 181.003906 C 277.191406 181 277.199219 181 277.207031 180.996094 C 277.222656 180.992188 277.238281 180.988281 277.253906 180.984375 C 277.863281 180.835938 278.472656 180.761719 279.070312 180.761719 C 279.074219 180.761719 279.074219 180.761719 279.074219 180.761719 C 282.375 180.761719 285.390625 182.953125 286.316406 186.261719 C 286.320312 186.273438 286.320312 186.285156 286.324219 186.300781 C 286.332031 186.316406 286.335938 186.335938 286.339844 186.355469 C 286.347656 186.375 286.351562 186.394531 286.355469 186.410156 L 302.089844 247.417969 L 300.054688 248.113281 C 280.175781 262.292969 291.371094 272.679688 293.992188 276.347656 L 313.554688 290.097656 L 337.46875 319.605469 C 338.742188 321.390625 340.761719 322.402344 343.011719 322.597656 C 342.765625 329.042969 341.195312 334.53125 338.550781 339.246094 C 338.726562 337.183594 338.566406 335.136719 338.050781 333.132812 C 334.96875 321.179688 319.976562 314.082031 301.109375 314.082031 C 294.414062 314.082031 287.238281 314.972656 279.925781 316.859375 C 260.867188 321.773438 245.847656 332.164062 239.554688 343.414062"/></g><g><path fill="#811f1b" d="M 343.847656 322.628906 C 343.566406 322.628906 343.285156 322.617188 343.011719 322.59375 C 343.011719 322.59375 343.011719 322.597656 343.011719 322.597656 C 340.761719 322.402344 338.742188 321.390625 337.46875 319.605469 L 313.554688 290.097656 L 293.992188 276.347656 C 291.371094 272.679688 280.175781 262.292969 300.054688 248.113281 L 302.089844 247.417969 L 304.660156 246.539062 C 306.765625 246.035156 308.878906 245.722656 310.835938 245.722656 C 314.113281 245.722656 316.960938 246.597656 318.597656 248.894531 L 358.390625 304.683594 C 359.265625 305.90625 359.679688 307.34375 359.679688 308.832031 C 359.675781 311.800781 358.019531 314.972656 355.042969 317.09375 L 350.296875 320.480469 C 350.207031 320.542969 350.121094 320.605469 350.03125 320.664062 C 348.074219 321.984375 345.894531 322.628906 343.847656 322.628906"/></g><g><path fill="#811f1b" d="M 273.871094 378.261719 C 258.738281 378.261719 246.101562 373.691406 240.101562 365.722656 C 240.089844 365.714844 240.082031 365.710938 240.070312 365.707031 C 239.339844 364.730469 238.707031 363.707031 238.179688 362.632812 C 240.019531 360.125 240.015625 352.503906 239.554688 343.414062 C 245.847656 332.164062 260.867188 321.773438 279.925781 316.859375 C 287.238281 314.972656 294.414062 314.082031 301.109375 314.082031 C 319.976562 314.082031 334.96875 321.179688 338.050781 333.132812 C 338.566406 335.136719 338.726562 337.183594 338.550781 339.246094 C 338.550781 339.246094 338.550781 339.25 338.550781 339.25 C 337.636719 350.078125 327.59375 361.316406 312.472656 368.96875 C 312.46875 368.972656 312.464844 368.972656 312.464844 368.976562 C 312.445312 368.984375 312.429688 368.992188 312.414062 369 C 312.410156 369.003906 312.40625 369.003906 312.402344 369.007812 C 312.386719 369.011719 312.371094 369.019531 312.359375 369.027344 C 312.351562 369.03125 312.34375 369.035156 312.339844 369.039062 C 312.324219 369.042969 312.3125 369.050781 312.304688 369.054688 C 312.296875 369.058594 312.285156 369.0625 312.28125 369.066406 C 312.265625 369.074219 312.257812 369.078125 312.242188 369.085938 C 312.234375 369.089844 312.222656 369.097656 312.214844 369.101562 C 312.210938 369.101562 312.207031 369.105469 312.203125 369.105469 C 312.183594 369.113281 312.164062 369.125 312.144531 369.136719 C 312.144531 369.136719 312.144531 369.136719 312.140625 369.136719 C 307.066406 371.675781 301.425781 373.8125 295.375 375.398438 C 295.371094 375.398438 295.367188 375.398438 295.363281 375.402344 C 295.34375 375.40625 295.324219 375.410156 295.300781 375.417969 C 295.296875 375.417969 295.285156 375.421875 295.28125 375.421875 C 295.269531 375.425781 295.257812 375.429688 295.242188 375.433594 C 295.230469 375.4375 295.214844 375.441406 295.199219 375.445312 C 295.191406 375.445312 295.183594 375.449219 295.175781 375.449219 C 295.15625 375.457031 295.140625 375.460938 295.121094 375.464844 C 295.117188 375.464844 295.109375 375.46875 295.105469 375.46875 C 295.085938 375.472656 295.066406 375.480469 295.042969 375.484375 C 293.21875 375.957031 291.398438 376.363281 289.589844 376.714844 C 284.175781 377.761719 278.886719 378.261719 273.871094 378.261719"/></g><g><path fill="#811f1b" d="M 236.65625 363.507812 C 236.652344 363.507812 236.648438 363.503906 236.648438 363.503906 L 236.5625 363.507812 C 226.492188 361.824219 214.511719 331.496094 214.515625 312.960938 C 214.515625 312.507812 214.523438 312.058594 214.535156 311.621094 C 214.535156 311.605469 214.539062 311.589844 214.539062 311.570312 C 214.539062 311.558594 214.539062 311.546875 214.539062 311.53125 C 214.539062 311.527344 214.539062 311.523438 214.539062 311.523438 C 214.539062 311.507812 214.539062 311.496094 214.539062 311.484375 C 214.539062 311.480469 214.542969 311.476562 214.542969 311.472656 C 214.542969 311.457031 214.542969 311.441406 214.542969 311.429688 C 214.542969 311.425781 214.542969 311.425781 214.542969 311.421875 C 214.542969 311.410156 214.546875 311.394531 214.546875 311.378906 C 214.546875 311.378906 214.546875 311.375 214.546875 311.375 C 215.144531 294.769531 219.984375 281.207031 225.757812 279.054688 C 225.761719 279.054688 225.761719 279.050781 225.761719 279.050781 C 226.289062 278.855469 226.820312 278.753906 227.359375 278.753906 C 227.410156 278.753906 227.457031 278.753906 227.503906 278.753906 C 234.050781 278.976562 238.859375 294.042969 238.246094 312.414062 C 237.953125 321.160156 239.042969 333.210938 239.554688 343.414062 C 240.015625 352.503906 240.019531 360.125 238.179688 362.632812 C 237.769531 363.195312 237.265625 363.5 236.65625 363.507812"/></g><g><path fill="#54130f" d="M 263.375 262.5625 C 261.734375 262.5625 260.167969 262.023438 258.890625 261.078125 L 265.949219 253.660156 L 270.195312 253.8125 C 270.226562 253.8125 270.261719 253.8125 270.296875 253.8125 C 270.648438 253.8125 270.992188 253.746094 271.304688 253.621094 C 271.96875 257.449219 269.59375 261.207031 265.769531 262.191406 L 265.257812 262.324219 C 264.628906 262.484375 263.996094 262.5625 263.375 262.5625 M 255.894531 256.152344 L 255.15625 253.285156 L 258.511719 253.402344 L 255.894531 256.152344 M 263.652344 248.003906 L 257.84375 247.800781 L 263.03125 242.347656 L 267.277344 242.496094 C 267.308594 242.5 267.34375 242.5 267.375 242.5 C 267.738281 242.5 268.089844 242.429688 268.410156 242.300781 L 268.835938 243.949219 C 268.789062 243.949219 268.742188 243.949219 268.699219 243.949219 C 268.019531 243.949219 267.335938 244.195312 266.796875 244.695312 L 263.652344 248.003906 M 252.976562 244.839844 L 252.238281 241.972656 L 255.59375 242.089844 L 252.976562 244.839844 M 260.734375 236.6875 L 254.925781 236.484375 L 260.113281 231.035156 L 264.359375 231.183594 C 264.390625 231.1875 264.425781 231.1875 264.457031 231.1875 C 264.824219 231.1875 265.171875 231.117188 265.492188 230.988281 L 265.917969 232.636719 C 265.871094 232.636719 265.828125 232.632812 265.78125 232.632812 C 265.101562 232.632812 264.417969 232.882812 263.882812 233.382812 L 260.734375 236.6875 M 250.058594 233.523438 L 249.320312 230.660156 L 252.675781 230.777344 L 250.058594 233.523438 M 257.816406 225.375 L 252.007812 225.171875 L 257.195312 219.722656 L 261.441406 219.871094 C 261.476562 219.871094 261.507812 219.871094 261.542969 219.871094 C 261.90625 219.871094 262.253906 219.800781 262.574219 219.675781 L 263 221.324219 C 262.953125 221.320312 262.910156 221.320312 262.863281 221.320312 C 262.183594 221.320312 261.5 221.570312 260.960938 222.070312 L 257.816406 225.375 M 247.140625 222.210938 L 246.402344 219.34375 L 249.757812 219.460938 L 247.140625 222.210938 M 254.898438 214.0625 L 249.089844 213.859375 L 254.277344 208.410156 L 258.523438 208.558594 C 258.558594 208.558594 258.589844 208.558594 258.625 208.558594 C 258.988281 208.558594 259.335938 208.488281 259.65625 208.359375 L 260.082031 210.011719 C 260.035156 210.007812 259.992188 210.007812 259.945312 210.007812 C 259.265625 210.007812 258.582031 210.257812 258.046875 210.757812 L 254.898438 214.0625 M 244.222656 210.898438 L 243.484375 208.03125 L 246.839844 208.148438 L 244.222656 210.898438 M 251.980469 202.746094 L 246.171875 202.546875 L 251.359375 197.097656 L 255.605469 197.242188 C 255.640625 197.246094 255.671875 197.246094 255.703125 197.246094 C 256.070312 197.246094 256.417969 197.175781 256.738281 197.046875 L 257.164062 198.695312 C 257.121094 198.695312 257.074219 198.695312 257.027344 198.695312 C 256.347656 198.695312 255.664062 198.941406 255.128906 199.441406 L 251.980469 202.746094 M 241.304688 199.585938 L 240.566406 196.71875 L 243.921875 196.835938 L 241.304688 199.585938 M 249.0625 191.433594 L 240.144531 191.125 C 240.109375 191.121094 240.078125 191.121094 240.042969 191.121094 C 239.734375 191.121094 239.4375 191.171875 239.160156 191.265625 L 239.050781 190.835938 L 251.3125 187.675781 L 254.136719 186.945312 L 254.246094 187.382812 C 254.203125 187.382812 254.15625 187.382812 254.109375 187.382812 C 253.429688 187.382812 252.746094 187.628906 252.210938 188.128906 L 249.0625 191.433594"/></g><g><path fill="#8c8a8b" d="M 255.703125 197.246094 C 255.671875 197.246094 255.640625 197.246094 255.605469 197.242188 L 251.359375 197.097656 L 256.011719 192.207031 C 256.160156 192.070312 256.289062 191.917969 256.402344 191.757812 C 257.640625 192.078125 258.535156 193.222656 258.488281 194.554688 C 258.449219 195.695312 257.734375 196.648438 256.738281 197.046875 C 256.417969 197.175781 256.070312 197.246094 255.703125 197.246094 M 243.921875 196.835938 L 240.566406 196.71875 L 239.949219 196.695312 C 238.410156 196.644531 237.207031 195.351562 237.261719 193.8125 C 237.300781 192.617188 238.089844 191.625 239.160156 191.265625 C 239.4375 191.171875 239.734375 191.121094 240.042969 191.121094 C 240.078125 191.121094 240.109375 191.121094 240.144531 191.125 L 249.0625 191.433594 L 243.921875 196.835938"/></g><g><path fill="#8c8a8b" d="M 258.625 208.558594 C 258.589844 208.558594 258.558594 208.558594 258.523438 208.558594 L 254.277344 208.410156 L 258.929688 203.519531 C 259.078125 203.382812 259.210938 203.230469 259.320312 203.070312 C 260.558594 203.390625 261.453125 204.535156 261.40625 205.867188 C 261.367188 207.007812 260.652344 207.960938 259.65625 208.359375 C 259.335938 208.488281 258.988281 208.558594 258.625 208.558594 M 246.839844 208.148438 L 243.484375 208.03125 L 242.867188 208.011719 C 242.328125 207.992188 241.832031 207.820312 241.414062 207.542969 L 246.171875 202.546875 L 251.980469 202.746094 L 246.839844 208.148438"/></g><g><path fill="#8c8a8b" d="M 261.542969 219.871094 C 261.507812 219.871094 261.476562 219.871094 261.441406 219.871094 L 257.195312 219.722656 L 261.847656 214.835938 C 261.996094 214.695312 262.128906 214.546875 262.238281 214.386719 C 263.476562 214.703125 264.371094 215.851562 264.324219 217.183594 C 264.285156 218.320312 263.570312 219.273438 262.574219 219.675781 C 262.253906 219.800781 261.90625 219.871094 261.542969 219.871094 M 249.757812 219.460938 L 246.402344 219.34375 L 245.785156 219.320312 C 245.246094 219.304688 244.75 219.132812 244.332031 218.855469 L 249.089844 213.859375 L 254.898438 214.0625 L 249.757812 219.460938"/></g><g><path fill="#8c8a8b" d="M 264.457031 231.1875 C 264.425781 231.1875 264.390625 231.1875 264.359375 231.183594 L 260.113281 231.035156 L 264.765625 226.148438 C 264.914062 226.011719 265.042969 225.859375 265.15625 225.699219 C 266.394531 226.019531 267.289062 227.164062 267.242188 228.496094 C 267.203125 229.632812 266.484375 230.589844 265.492188 230.988281 C 265.171875 231.117188 264.824219 231.1875 264.457031 231.1875 M 252.675781 230.777344 L 249.320312 230.660156 L 248.703125 230.636719 C 248.164062 230.617188 247.667969 230.449219 247.25 230.167969 L 252.007812 225.171875 L 257.816406 225.375 L 252.675781 230.777344"/></g><g><path fill="#8c8a8b" d="M 267.375 242.5 C 267.34375 242.5 267.308594 242.5 267.277344 242.496094 L 263.03125 242.347656 L 267.683594 237.460938 C 267.832031 237.324219 267.960938 237.171875 268.074219 237.011719 C 269.3125 237.332031 270.207031 238.476562 270.160156 239.808594 C 270.121094 240.945312 269.402344 241.902344 268.410156 242.300781 C 268.089844 242.429688 267.738281 242.5 267.375 242.5 M 255.59375 242.089844 L 252.238281 241.972656 L 251.621094 241.949219 C 251.082031 241.929688 250.585938 241.761719 250.167969 241.484375 L 254.925781 236.484375 L 260.734375 236.6875 L 255.59375 242.089844"/></g><g><path fill="#8c8a8b" d="M 270.296875 253.8125 C 270.261719 253.8125 270.226562 253.8125 270.195312 253.8125 L 265.949219 253.660156 L 270.601562 248.773438 C 270.75 248.636719 270.878906 248.484375 270.992188 248.324219 C 272.230469 248.644531 273.125 249.789062 273.078125 251.121094 C 273.039062 252.269531 272.3125 253.230469 271.304688 253.621094 C 270.992188 253.746094 270.648438 253.8125 270.296875 253.8125 M 258.511719 253.402344 L 255.15625 253.285156 L 254.535156 253.261719 C 254 253.242188 253.503906 253.074219 253.085938 252.796875 L 257.84375 247.800781 L 263.652344 248.003906 L 258.511719 253.402344"/></g><g><path fill="#777475" d="M 254.042969 264.921875 C 253.296875 264.921875 252.550781 264.625 252.003906 264.035156 C 250.953125 262.910156 251.011719 261.144531 252.140625 260.09375 L 255.894531 256.152344 L 258.511719 253.402344 L 263.652344 248.003906 L 266.796875 244.695312 C 267.335938 244.195312 268.019531 243.949219 268.699219 243.949219 C 268.742188 243.949219 268.789062 243.949219 268.835938 243.949219 C 269.535156 243.984375 270.222656 244.28125 270.738281 244.835938 C 271.648438 245.8125 271.722656 247.269531 270.992188 248.324219 C 270.878906 248.484375 270.75 248.636719 270.601562 248.773438 L 265.949219 253.660156 L 258.890625 261.078125 L 255.941406 264.175781 C 255.40625 264.675781 254.722656 264.921875 254.042969 264.921875"/></g><g><path fill="#777475" d="M 239.453125 208.355469 C 238.707031 208.355469 237.964844 208.058594 237.414062 207.46875 C 236.363281 206.34375 236.425781 204.578125 237.550781 203.527344 L 241.304688 199.585938 L 243.921875 196.835938 L 249.0625 191.433594 L 252.210938 188.128906 C 252.746094 187.628906 253.429688 187.382812 254.109375 187.382812 C 254.15625 187.382812 254.203125 187.382812 254.246094 187.382812 C 254.945312 187.417969 255.636719 187.714844 256.148438 188.269531 C 257.0625 189.246094 257.136719 190.703125 256.402344 191.757812 C 256.289062 191.917969 256.160156 192.070312 256.011719 192.207031 L 251.359375 197.097656 L 246.171875 202.546875 L 241.414062 207.542969 L 241.355469 207.605469 C 240.816406 208.109375 240.136719 208.355469 239.453125 208.355469"/></g><g><path fill="#777475" d="M 242.371094 219.667969 C 241.625 219.667969 240.882812 219.371094 240.332031 218.78125 C 239.28125 217.65625 239.34375 215.890625 240.46875 214.839844 L 244.222656 210.898438 L 246.839844 208.148438 L 251.980469 202.746094 L 255.128906 199.441406 C 255.664062 198.941406 256.347656 198.695312 257.027344 198.695312 C 257.074219 198.695312 257.121094 198.695312 257.164062 198.695312 C 257.863281 198.730469 258.550781 199.027344 259.066406 199.582031 C 259.980469 200.558594 260.054688 202.015625 259.320312 203.070312 C 259.210938 203.230469 259.078125 203.382812 258.929688 203.519531 L 254.277344 208.410156 L 249.089844 213.859375 L 244.332031 218.855469 L 244.273438 218.921875 C 243.734375 219.421875 243.054688 219.667969 242.371094 219.667969"/></g><g><path fill="#777475" d="M 245.289062 230.984375 C 244.542969 230.984375 243.796875 230.683594 243.25 230.097656 C 242.199219 228.96875 242.261719 227.203125 243.386719 226.15625 L 247.140625 222.210938 L 249.757812 219.460938 L 254.898438 214.0625 L 258.046875 210.757812 C 258.582031 210.257812 259.265625 210.007812 259.945312 210.007812 C 259.992188 210.007812 260.035156 210.007812 260.082031 210.011719 C 260.78125 210.046875 261.46875 210.34375 261.984375 210.894531 C 262.898438 211.871094 262.972656 213.328125 262.238281 214.386719 C 262.128906 214.546875 261.996094 214.695312 261.847656 214.835938 L 257.195312 219.722656 L 252.007812 225.171875 L 247.25 230.167969 L 247.1875 230.234375 C 246.652344 230.734375 245.96875 230.984375 245.289062 230.984375"/></g><g><path fill="#777475" d="M 248.207031 242.296875 C 247.460938 242.296875 246.714844 241.996094 246.167969 241.40625 C 245.117188 240.28125 245.179688 238.519531 246.304688 237.46875 L 250.058594 233.523438 L 252.675781 230.777344 L 257.816406 225.375 L 260.960938 222.070312 C 261.5 221.570312 262.183594 221.320312 262.863281 221.320312 C 262.910156 221.320312 262.953125 221.320312 263 221.324219 C 263.699219 221.359375 264.386719 221.65625 264.902344 222.207031 C 265.8125 223.183594 265.890625 224.644531 265.15625 225.699219 C 265.042969 225.859375 264.914062 226.011719 264.765625 226.148438 L 260.113281 231.035156 L 254.925781 236.484375 L 250.167969 241.484375 L 250.109375 241.546875 C 249.570312 242.046875 248.890625 242.296875 248.207031 242.296875"/></g><g><path fill="#777475" d="M 251.125 253.609375 C 250.378906 253.609375 249.632812 253.3125 249.085938 252.722656 C 248.035156 251.597656 248.097656 249.832031 249.222656 248.78125 L 252.976562 244.839844 L 255.59375 242.089844 L 260.734375 236.6875 L 263.882812 233.382812 C 264.417969 232.882812 265.101562 232.632812 265.78125 232.632812 C 265.828125 232.632812 265.871094 232.636719 265.917969 232.636719 C 266.617188 232.671875 267.304688 232.96875 267.820312 233.519531 C 268.734375 234.5 268.804688 235.957031 268.074219 237.011719 C 267.960938 237.171875 267.832031 237.324219 267.683594 237.460938 L 263.03125 242.347656 L 257.84375 247.800781 L 253.085938 252.796875 L 253.023438 252.859375 C 252.488281 253.359375 251.804688 253.609375 251.125 253.609375"/></g><g><path fill="#f03d3a" d="M 194.023438 273.167969 L 206.585938 203.386719 C 207.320312 199.296875 204.601562 195.382812 200.511719 194.644531 L 138.320312 183.449219 C 134.226562 182.714844 130.3125 185.433594 129.578125 189.523438 L 117.015625 259.304688 C 100.71875 270.054688 88.164062 288.734375 84.074219 311.46875 C 76.886719 351.398438 103.152344 362.921875 137.019531 369.019531 C 170.886719 375.113281 199.523438 373.476562 206.710938 333.542969 C 210.804688 310.808594 205.554688 288.925781 194.023438 273.167969"/></g><g><path fill="#c1302d" d="M 88.492188 326.144531 C 86.15625 330 80.457031 330.816406 75.765625 327.972656 L 70.78125 324.949219 C 66.089844 322.101562 64.183594 316.671875 66.519531 312.816406 L 102.0625 254.226562 C 104.398438 250.375 110.078125 249.917969 115.785156 250.847656 L 120.496094 252.074219 C 141.375 264.738281 130.976562 275.925781 128.640625 279.78125 L 110.152344 294.945312 L 88.492188 326.144531"/></g><g><path fill="#c1302d" d="M 191.707031 358.179688 C 188.746094 374.632812 163.335938 383.832031 134.949219 378.722656 C 106.5625 373.613281 85.953125 356.132812 88.914062 339.679688 C 91.878906 323.222656 117.289062 314.027344 145.675781 319.136719 C 174.058594 324.246094 194.667969 341.726562 191.707031 358.179688"/></g><g><path fill="#c1302d" d="M 210.492188 309.058594 C 212.46875 327.332031 202.539062 359.949219 192.378906 362.4375 C 185.867188 363.140625 188.886719 329.882812 186.910156 311.609375 C 184.933594 293.335938 188.609375 277.949219 195.121094 277.246094 C 201.632812 276.542969 208.515625 290.785156 210.492188 309.058594"/></g><g><path fill="#761c18" d="M 161.75 187.667969 L 149.660156 254.828125 C 148.921875 258.917969 151.644531 262.832031 155.734375 263.570312 L 156.25 263.660156 C 160.34375 264.398438 164.253906 261.679688 164.992188 257.585938 L 177.082031 190.429688 L 161.75 187.667969"/></g><g><path fill="#d3d2d2" d="M 179.085938 193.261719 C 179.253906 194.792969 178.148438 196.167969 176.617188 196.335938 L 161.046875 198.046875 C 159.515625 198.214844 158.136719 197.109375 157.96875 195.578125 C 157.804688 194.046875 158.90625 192.671875 160.4375 192.503906 L 176.011719 190.792969 C 177.542969 190.625 178.917969 191.730469 179.085938 193.261719"/></g><g><path fill="#d3d2d2" d="M 177.015625 204.761719 C 177.183594 206.289062 176.078125 207.667969 174.550781 207.835938 L 158.976562 209.542969 C 157.445312 209.710938 156.066406 208.605469 155.902344 207.078125 C 155.734375 205.546875 156.835938 204.167969 158.367188 204 L 173.941406 202.292969 C 175.472656 202.125 176.847656 203.230469 177.015625 204.761719"/></g><g><path fill="#d3d2d2" d="M 174.945312 216.257812 C 175.113281 217.789062 174.011719 219.167969 172.480469 219.335938 L 156.90625 221.042969 C 155.375 221.210938 154 220.105469 153.832031 218.574219 C 153.664062 217.046875 154.769531 215.667969 156.296875 215.5 L 171.871094 213.792969 C 173.402344 213.621094 174.777344 214.730469 174.945312 216.257812"/></g><g><path fill="#d3d2d2" d="M 172.878906 227.757812 C 173.046875 229.289062 171.941406 230.664062 170.410156 230.832031 L 154.835938 232.542969 C 153.304688 232.710938 151.929688 231.605469 151.761719 230.074219 C 151.59375 228.542969 152.699219 227.167969 154.226562 227 L 169.800781 225.289062 C 171.332031 225.121094 172.710938 226.226562 172.878906 227.757812"/></g><g><path fill="#d3d2d2" d="M 170.808594 239.257812 C 170.976562 240.789062 169.871094 242.164062 168.339844 242.332031 L 152.765625 244.039062 C 151.234375 244.207031 149.859375 243.105469 149.691406 241.574219 C 149.523438 240.042969 150.628906 238.664062 152.160156 238.496094 L 167.730469 236.789062 C 169.261719 236.621094 170.640625 237.726562 170.808594 239.257812"/></g><g><path fill="#d3d2d2" d="M 168.738281 250.753906 C 168.90625 252.285156 167.800781 253.664062 166.269531 253.832031 L 150.695312 255.539062 C 149.167969 255.707031 147.789062 254.601562 147.621094 253.070312 C 147.453125 251.542969 148.558594 250.164062 150.089844 249.996094 L 165.660156 248.289062 C 167.191406 248.121094 168.570312 249.226562 168.738281 250.753906"/></g><g><path fill="#aeacac" d="M 169.597656 264.386719 C 168.632812 265.585938 166.878906 265.777344 165.679688 264.816406 L 149.917969 250.546875 C 148.71875 249.585938 148.523438 247.828125 149.488281 246.628906 C 150.453125 245.425781 152.207031 245.234375 153.40625 246.199219 L 169.167969 260.464844 C 170.371094 261.429688 170.5625 263.183594 169.597656 264.386719"/></g><g><path fill="#aeacac" d="M 179.945312 206.890625 C 178.984375 208.09375 177.230469 208.285156 176.027344 207.320312 L 160.265625 193.054688 C 159.066406 192.089844 158.875 190.335938 159.835938 189.132812 C 160.800781 187.933594 162.554688 187.742188 163.757812 188.703125 L 179.519531 202.972656 C 180.71875 203.9375 180.910156 205.691406 179.945312 206.890625"/></g><g><path fill="#aeacac" d="M 177.878906 218.390625 C 176.914062 219.589844 175.160156 219.785156 173.957031 218.820312 L 158.195312 204.550781 C 156.996094 203.589844 156.804688 201.835938 157.765625 200.632812 C 158.730469 199.433594 160.484375 199.238281 161.6875 200.203125 L 177.445312 214.472656 C 178.648438 215.433594 178.839844 217.1875 177.878906 218.390625"/></g><g><path fill="#aeacac" d="M 175.808594 229.890625 C 174.84375 231.089844 173.089844 231.28125 171.886719 230.320312 L 156.128906 216.050781 C 154.925781 215.085938 154.734375 213.332031 155.695312 212.132812 C 156.660156 210.929688 158.417969 210.738281 159.617188 211.703125 L 175.378906 225.96875 C 176.578125 226.933594 176.769531 228.6875 175.808594 229.890625"/></g><g><path fill="#aeacac" d="M 173.738281 241.386719 C 172.773438 242.589844 171.019531 242.78125 169.816406 241.816406 L 154.058594 227.550781 C 152.855469 226.585938 152.664062 224.832031 153.628906 223.628906 C 154.589844 222.429688 156.347656 222.238281 157.546875 223.199219 L 173.308594 237.46875 C 174.507812 238.433594 174.703125 240.1875 173.738281 241.386719"/></g><g><path fill="#aeacac" d="M 171.667969 252.886719 C 170.703125 254.089844 168.949219 254.28125 167.75 253.316406 L 151.988281 239.050781 C 150.785156 238.085938 150.59375 236.332031 151.558594 235.128906 C 152.523438 233.929688 154.277344 233.734375 155.476562 234.699219 L 171.238281 248.96875 C 172.4375 249.929688 172.632812 251.6875 171.667969 252.886719"/></g><g><path fill="#a7a5a6" d="M 187.789062 50.816406 C 186.277344 50.816406 184.144531 51.3125 183.066406 55.621094 C 182.648438 57.367188 182.933594 58.871094 183.972656 60.328125 C 187.609375 65.410156 198.863281 68.042969 205.375 69.011719 C 205.15625 66.21875 203.675781 62.863281 201.136719 59.582031 C 197.214844 54.503906 191.601562 50.816406 187.789062 50.816406 Z M 210.128906 75.3125 L 207.699219 75.089844 C 205.480469 74.882812 185.847656 72.820312 179.300781 63.675781 C 177.304688 60.886719 176.675781 57.625 177.484375 54.253906 C 178.945312 48.40625 182.699219 45.066406 187.789062 45.066406 C 193.5 45.066406 200.523438 49.386719 205.6875 56.066406 C 210.183594 61.886719 212.027344 68.039062 210.746094 72.953125 L 210.128906 75.3125"/></g><g><path fill="#a7a5a6" d="M 219.082031 59.582031 C 216.542969 62.863281 215.0625 66.21875 214.847656 69.011719 C 221.355469 68.042969 232.605469 65.410156 236.246094 60.328125 C 237.285156 58.871094 237.570312 57.367188 237.152344 55.621094 C 236.074219 51.3125 233.941406 50.816406 232.429688 50.816406 C 228.617188 50.816406 223.003906 54.503906 219.082031 59.582031 Z M 209.472656 72.953125 C 208.191406 68.039062 210.035156 61.886719 214.53125 56.066406 C 219.695312 49.386719 226.71875 45.066406 232.429688 45.066406 C 237.519531 45.066406 241.273438 48.40625 242.734375 54.253906 C 243.546875 57.625 242.914062 60.886719 240.917969 63.675781 C 234.371094 72.820312 214.738281 74.882812 212.519531 75.089844 L 210.089844 75.3125 L 209.472656 72.953125"/></g><g><path fill="#761c18" d="M 215.523438 74.621094 C 215.523438 77.972656 212.804688 80.691406 209.453125 80.691406 C 206.101562 80.691406 203.386719 77.972656 203.386719 74.621094 C 203.386719 71.269531 206.101562 68.554688 209.453125 68.554688 C 212.804688 68.554688 215.523438 71.269531 215.523438 74.621094"/></g></g></svg>