<?xml version="1.0" encoding="UTF-8" standalone="no"?><svg xmlns="http://www.w3.org/2000/svg" xmlns:xlink="http://www.w3.org/1999/xlink" contentScriptType="text/ecmascript" zoomAndPan="magnify" text-rendering="geometricPrecision" contentStyleType="text/css" version="1" width="512" shape-rendering="geometricPrecision" clip-rule="evenodd" fill="#000000" preserveAspectRatio="xMidYMid meet" viewBox="94.0 114.4 512.0 471.2" height="471.2" fill-rule="evenodd" image-rendering="optimizeQuality"><g id="change1_1" fill-rule="nonzero"><path fill="inherit" d="M350 174.331c31.0477,0 59.1568,12.5847 79.5036,32.9315 20.3469,20.3457 32.9315,48.456 32.9315,79.5025 0,31.0465 -12.5847,59.1568 -32.9315,79.5025 -20.3469,20.3469 -48.456,32.9315 -79.5036,32.9315 -31.0465,0 -59.1568,-12.5847 -79.5025,-32.9315 -20.3469,-20.3457 -32.9315,-48.456 -32.9315,-79.5025 0,-31.0465 12.5847,-59.1568 32.9315,-79.5025 20.3457,-20.3469 48.456,-32.9315 79.5025,-32.9315zm71.0186 41.4166c-18.1748,-18.1748 -43.2839,-29.4166 -71.0186,-29.4166 -27.7335,0 -52.8438,11.2417 -71.0174,29.4166 -18.1748,18.1736 -29.4166,43.2839 -29.4166,71.0174 0,27.7335 11.2417,52.8438 29.4166,71.0174 18.1736,18.1748 43.2839,29.4166 71.0174,29.4166 27.7347,0 52.8438,-11.2417 71.0186,-29.4166 18.1748,-18.1736 29.4166,-43.2839 29.4166,-71.0174 0,-27.7335 -11.2417,-52.8438 -29.4166,-71.0174z"/><path fill="inherit" d="M350 210.436c21.0768,0 40.1611,8.5441 53.9729,22.3559 13.8118,13.8118 22.3571,32.8961 22.3571,53.9729 0,21.0768 -8.54529,40.1611 -22.3571,53.9729 -13.8118,13.8118 -32.8961,22.3559 -53.9729,22.3559 -21.0768,0 -40.1611,-8.54529 -53.9729,-22.3559 -13.8118,-13.813 -22.3559,-32.8961 -22.3559,-53.9729 0,-21.0768 8.54529,-40.1611 22.3559,-53.9729 13.8118,-13.8106 32.8961,-22.3559 53.9729,-22.3559zm45.4878 30.841c-11.6398,-11.6398 -27.724,-18.841 -45.4878,-18.841 -17.7638,0 -33.8469,7.20119 -45.4878,18.841 -11.6398,11.641 -18.841,27.724 -18.841,45.4878 0,17.7638 7.20119,33.8469 18.841,45.4878 11.641,11.6398 27.724,18.841 45.4878,18.841 17.7638,0 33.8481,-7.20119 45.4878,-18.841 11.641,-11.641 18.8421,-27.724 18.8421,-45.4878 0,-17.7638 -7.20119,-33.8469 -18.8421,-45.4878z"/><path fill="inherit" d="M344 216.436c0,3.313 2.68701,6.00001 6.00001,6.00001 3.313,0 6.00001,-2.68701 6.00001,-6.00001l0 -76.9879c0,-3.313 -2.68701,-6.00001 -6.00001,-6.00001 -3.313,0 -6.00001,2.68701 -6.00001,6.00001l0 76.9879z"/><path fill="inherit" d="M420.329 280.765c-3.313,0 -6.00001,2.68701 -6.00001,6.00001 0,3.313 2.68701,6.00001 6.00001,6.00001l76.9879 0c3.313,0 6.00001,-2.68701 6.00001,-6.00001 0,-3.313 -2.68701,-6.00001 -6.00001,-6.00001l-76.9879 0z"/><path fill="inherit" d="M356 357.094c0,-3.313 -2.68701,-6.00001 -6.00001,-6.00001 -3.313,0 -6.00001,2.68701 -6.00001,6.00001l0 76.9879c0,3.313 2.68701,6.00001 6.00001,6.00001 3.313,0 6.00001,-2.68701 6.00001,-6.00001l0 -76.9879z"/><path fill="inherit" d="M279.672 292.765c3.313,0 6.00001,-2.68701 6.00001,-6.00001 0,-3.313 -2.68701,-6.00001 -6.00001,-6.00001l-76.9879 0c-3.313,0 -6.00001,2.68701 -6.00001,6.00001 0,3.313 2.68701,6.00001 6.00001,6.00001l76.9879 0z"/><path fill="inherit" d="M356 247.292c0,-3.313 -2.68701,-6.00001 -6.00001,-6.00001 -3.313,0 -6.00001,2.68701 -6.00001,6.00001l0 33.4725 -33.4725 0c-3.313,0 -6.00001,2.68701 -6.00001,6.00001 0,3.313 2.68701,6.00001 6.00001,6.00001l33.4725 0 0 33.4725c0,3.313 2.68701,6.00001 6.00001,6.00001 3.313,0 6.00001,-2.68701 6.00001,-6.00001l0 -33.4725 33.4725 0c3.313,0 6.00001,-2.68701 6.00001,-6.00001 0,-3.313 -2.68701,-6.00001 -6.00001,-6.00001l-33.4725 0 0 -33.4725z"/><path fill="inherit" d="M100.001 114.427l500 0c3.313,0 6.00001,2.68701 6.00001,6.00001l0 377.435c0,3.313 -2.68701,6.00001 -6.00001,6.00001l-500 0c-3.313,0 -6.00001,-2.68701 -6.00001,-6.00001l0 -377.435c0,-3.313 2.68701,-6.00001 6.00001,-6.00001zm494 12l-488 0 0 365.435 488 0 0 -365.435z"/><path fill="inherit" d="M100.001 445.167c-3.313,0 -6.00001,2.68701 -6.00001,6.00001 0,3.313 2.68701,6.00001 6.00001,6.00001l500 0c3.313,0 6.00001,-2.68701 6.00001,-6.00001 0,-3.313 -2.68701,-6.00001 -6.00001,-6.00001l-500 0z"/><path fill="inherit" d="M439.779 495.282c-1.42323,-2.97638 -4.99253,-4.23544 -7.96891,-2.81221 -2.97638,1.42323 -4.23544,4.99253 -2.81221,7.96891l35.0422 73.1351 -228.079 0 35.0433 -73.1339c1.42323,-2.97638 0.164173,-6.54568 -2.81221,-7.96891 -2.97638,-1.42323 -6.54568,-0.164173 -7.96891,2.81221l-38.9174 81.2198c-0.536221,0.897639 -0.84567,1.94882 -0.84567,3.07087 0,3.313 2.68701,6.00001 6.00001,6.00001l246.999 0c0.896458,0.0129921 1.81063,-0.175984 2.67402,-0.589371 2.98819,-1.4315 4.24961,-5.01497 2.81811,-8.00316l-0.022441 0.0106299 -39.15 -81.7099z"/><path fill="inherit" d="M403.704 495.493c-1.3063,-3.02835 -4.82245,-4.42323 -7.8508,-3.11693 -3.02835,1.3063 -4.42323,4.82245 -3.11693,7.8508l18.7406 43.1894 -122.952 0 18.7418 -43.1882c1.3063,-3.02835 -0.0885828,-6.5445 -3.11693,-7.8508 -3.02835,-1.3063 -6.5445,0.0885828 -7.8508,3.11693l-22.1386 51.0166c-0.478347,0.862206 -0.750001,1.85079 -0.750001,2.90552 0,3.313 2.68701,6.00001 6.00001,6.00001l141.093 0 0.0874017 0c0.797245,0 1.60984,-0.158268 2.38819,-0.496064 3.03898,-1.31811 4.43386,-4.85316 3.11575,-7.89213l-0.0248032 0.0106299 -22.3666 -51.5457z"/><path fill="inherit" d="M134.02 469.332c-3.313,0 -6.00001,2.68701 -6.00001,6.00001 0,3.313 2.68701,6.00001 6.00001,6.00001l39.3745 0c3.313,0 6.00001,-2.68701 6.00001,-6.00001 0,-3.313 -2.68701,-6.00001 -6.00001,-6.00001l-39.3745 0z"/></g><path fill="none" d="M0 0H700V700H0z"/></svg>