<?xml version="1.0" encoding="UTF-8" standalone="no"?><svg xmlns="http://www.w3.org/2000/svg" xmlns:xlink="http://www.w3.org/1999/xlink" contentScriptType="text/ecmascript" fill="#000000" width="126" zoomAndPan="magnify" contentStyleType="text/css" viewBox="-0.0 0.0 126.0 104.0" height="104" preserveAspectRatio="xMidYMid meet" version="1"><g id="change1_1"><path fill="inherit" d="M32.213,22.442c-2.9-1.406-6.048-1.644-8.858-0.667c-6.641,2.317-9.774,10.721-6.986,18.732 c1.505,4.341,4.509,7.866,8.242,9.671c1.72,0.832,3.524,1.252,5.293,1.252c1.213,0,2.409-0.198,3.55-0.596 c6.638-2.318,9.771-10.717,6.984-18.723C38.935,27.773,35.937,24.249,32.213,22.442z M32.793,48.946 c-2.329,0.816-4.859,0.618-7.312-0.568c-3.258-1.575-5.891-4.683-7.223-8.526c-2.426-6.971,0.155-14.233,5.754-16.187 c0.943-0.328,1.918-0.491,2.906-0.491c1.464,0,2.957,0.357,4.422,1.068c3.251,1.576,5.879,4.684,7.208,8.525 c0.001,0,0.001,0.001,0.001,0.001C40.973,39.734,38.391,46.992,32.793,48.946z"/><path fill="inherit" d="M36.747,33.401c-1.118-3.21-3.303-5.795-5.992-7.092c-1.974-0.952-4.098-1.112-5.979-0.454 c-4.601,1.598-6.717,7.592-4.717,13.364c1.671,4.792,5.674,7.94,9.623,7.94c0.796,0,1.59-0.128,2.362-0.396 c4.59-1.609,6.7-7.603,4.703-13.361C36.747,33.402,36.747,33.401,36.747,33.401z M27.307,33.176 c0.069-0.024,0.144-0.035,0.223-0.035c0.736,0,1.831,1.022,2.398,2.64c0.402,1.16,0.427,2.392,0.063,3.139 c-0.134,0.274-0.3,0.448-0.502,0.518c-0.193,0.068-0.435,0.038-0.71-0.096c-0.748-0.36-1.49-1.341-1.894-2.503 C26.268,35.078,26.61,33.422,27.307,33.176z"/><path fill="inherit" d="M124.993,58.85h-5.22h-16.971c-0.4,0-0.762,0.238-0.919,0.606l-3.59,8.38l-15.371-3.552v-2.623 c6.001-1.602,10.44-7.075,10.44-13.582c0-0.484-0.033-0.965-0.081-1.443l15.006-4.133c0.309-0.085,0.558-0.312,0.671-0.611 c1.001-2.648,1.463-5.419,1.373-8.236c-0.071-2.23-0.502-4.419-1.26-6.52c0.96-3.16,2.105-9.171-0.098-15.985 c-1.668-5.169-4.605-8.765-6.775-10.871c-0.005-0.005-0.013-0.007-0.019-0.012c-0.086-0.08-0.185-0.143-0.294-0.189 c-0.008-0.003-0.015-0.011-0.023-0.014C101.751,0.024,101.629,0,101.503,0H63.643C63.561,0,63.48,0.01,63.4,0.03L0.75,15.72 c-0.022,0.006-0.039,0.021-0.061,0.028c-0.019,0.006-0.039,0.003-0.058,0.01c-0.035,0.013-0.058,0.041-0.09,0.058 c-0.066,0.034-0.127,0.07-0.183,0.117c-0.043,0.036-0.079,0.074-0.114,0.115c-0.045,0.052-0.083,0.107-0.116,0.167 c-0.027,0.049-0.049,0.096-0.067,0.148c-0.022,0.064-0.035,0.128-0.044,0.196c-0.008,0.058-0.013,0.114-0.01,0.174 c0.001,0.027-0.008,0.052-0.005,0.079c0.006,0.046,0.029,0.084,0.04,0.128c0.01,0.037,0.005,0.075,0.019,0.111l9.14,23.54 c0.002,0.004,0.005,0.007,0.007,0.012c0.001,0.003,0.001,0.007,0.002,0.01l6.521,15.69c0.155,0.373,0.52,0.616,0.924,0.616h38.16 v13.387c0,0.001,0,0.002,0,0.002v0.001c0,0.008,0.004,0.014,0.004,0.021c0.003,0.124,0.026,0.246,0.073,0.36 c0.024,0.059,0.068,0.105,0.103,0.158c0.036,0.055,0.063,0.114,0.109,0.162c0.08,0.081,0.177,0.142,0.28,0.192 c0.015,0.007,0.025,0.021,0.04,0.028l0.002,0.001c0,0,0,0,0,0l42.782,18.188l8.974,14.117c0.184,0.289,0.502,0.463,0.844,0.463 h16.97c0.001,0,0.001,0,0.002,0s0.002,0,0.002,0s0,0,0.001,0c0.247-0.001,0.474-0.092,0.647-0.242 c0.042-0.036,0.081-0.076,0.117-0.119c0.144-0.173,0.23-0.396,0.23-0.639V59.85C125.993,59.298,125.546,58.85,124.993,58.85z M103.462,60.85h14.967l-3.265,10.885l-14.892-3.441L103.462,60.85z M80.923,62.15v2.93c0,0.465,0.321,0.87,0.774,0.974 l33.156,7.661v13.427L71.173,69.634V62.15H80.923z M99.087,87.62L60.722,71.31h9.258l40.691,16.31H99.087z M99.796,30.438 c0.479,1.443,0.893,3.436,0.71,5.792c-0.248,3.116-1.436,5.495-2.462,7.021l-11.237,3.095c-0.036,0.012-0.074,0.014-0.108,0.03 l-29.354,8.085c0.586-2.089,0.848-4.239,0.777-6.414c-0.065-2.034-0.433-4.021-1.061-5.93c7.102-1.938,14.204-3.881,21.306-5.823 C85.509,34.341,92.651,32.388,99.796,30.438z M86.116,48.611c-0.272,3.524-3.216,6.309-6.803,6.309c-2.232,0-4.304-1.113-5.573-2.9 L86.116,48.611z M70.173,60.15h-2.92v-4.838c1.198,2.015,2.853,3.664,4.808,4.838H70.173z M65.253,54.357v5.793h-8.439v-3.468 L65.253,54.357z M56.813,62.15h12.359v7.16H56.813V62.15z M91.363,48.08c0,6.655-5.405,12.07-12.05,12.07 c-4.646,0-8.769-2.595-10.794-6.692l3.209-0.884c1.58,2.658,4.461,4.346,7.586,4.346c4.869,0,8.83-3.965,8.83-8.84 c0-0.009-0.001-0.018-0.001-0.027l3.184-0.877C91.348,47.476,91.363,47.777,91.363,48.08z M107.261,40.713l-6.468,1.782 c0.803-1.608,1.512-3.655,1.707-6.107c0.203-2.622-0.244-4.847-0.773-6.478c1.753-0.483,3.509-0.963,5.262-1.441l0.386-0.105 c0.567,1.735,0.9,3.531,0.959,5.359C108.409,36.106,108.049,38.456,107.261,40.713z M107.228,26.33l-0.766,0.208 c-2.102,0.573-4.207,1.146-6.304,1.727c-7.439,2.03-14.88,4.065-22.32,6.101c-7.439,2.035-14.879,4.07-22.317,6.1l-4.144,1.133 c-0.819-4.198-2.091-8.305-3.787-12.225c-1.846-4.276-4.21-8.332-7.028-12.083l60.629-15.181c1.959,1.987,4.433,5.175,5.881,9.659 C109.054,17.904,108.101,23.349,107.228,26.33z M63.766,2h29.626L38.72,15.69H9.102L63.766,2z M17.32,54.92l-6.188-14.89V17.69 h27.216c2.997,3.846,5.49,8.039,7.406,12.477c1.779,4.112,3.075,8.438,3.853,12.856c0.049,0.277,0.212,0.521,0.449,0.671 c0.162,0.103,0.348,0.156,0.536,0.156c0.088,0,0.176-0.012,0.263-0.035l4.274-1.169c0.589,1.757,0.934,3.589,0.994,5.466 c0.074,2.319-0.288,4.603-1.037,6.808H17.32z M108.572,102l-7.869-12.38h14.602l7.868,12.38H108.572z M123.993,99.563l-7.14-11.233 V73.066l3.664-12.216h3.476V99.563z"/></g></svg>